<?xml version="1.0" encoding="UTF-8"?>
<svg version="1.1" xmlns="http://www.w3.org/2000/svg" width="512" height="512">
<path d="M0 0 C1.02783165 -0.00453111 2.0556633 -0.00906223 3.11464137 -0.01373065 C6.55756769 -0.02638744 10.00033608 -0.02475343 13.44328308 -0.02310181 C15.91229455 -0.02908624 18.38130415 -0.03589159 20.85031128 -0.04345703 C26.86037048 -0.05929675 32.87036764 -0.06556579 38.88044194 -0.06668179 C43.76724129 -0.06763309 48.65402772 -0.07174746 53.54082298 -0.07808304 C67.40484684 -0.0956907 81.26883977 -0.10492265 95.13287488 -0.10342209 C95.87984084 -0.10334218 96.62680679 -0.10326227 97.39640808 -0.10317993 C98.1442892 -0.10309817 98.89217032 -0.10301641 99.6627145 -0.10293217 C111.7810435 -0.1021194 123.89924817 -0.12125595 136.01754121 -0.14945666 C148.46939012 -0.17820427 160.92117843 -0.19199593 173.37306136 -0.19026911 C180.36029067 -0.18960586 187.34738964 -0.19506973 194.334589 -0.21662521 C200.90671458 -0.23677073 207.47861218 -0.23614414 214.0507679 -0.22159195 C216.46099499 -0.21950054 218.87123923 -0.22422443 221.28143692 -0.23631287 C224.57572444 -0.25176354 227.86906279 -0.24245735 231.16333008 -0.22705078 C232.11354076 -0.23733791 233.06375144 -0.24762503 234.04275638 -0.25822389 C243.4148399 -0.16159024 250.24757014 3.13231421 257.04948425 9.47445679 C264.00124574 16.70996365 265.06909994 23.91762458 265.14050293 33.50392151 C265.16317483 35.04733616 265.16317483 35.04733616 265.18630475 36.6219309 C265.23407768 40.06906056 265.26756438 43.51617123 265.30070496 46.96347046 C265.3312483 49.43596609 265.36238587 51.90845444 265.39407349 54.38093567 C265.66906823 76.96222057 265.8104691 99.54561767 265.92083454 122.12824535 C265.93586999 125.15112123 265.95116556 128.17399565 265.96672058 131.1968689 C265.97057348 131.94810814 265.97442637 132.69934739 265.97839602 133.47335146 C266.04275736 145.61818439 266.18007714 157.76108942 266.34631465 169.9049091 C266.51592663 182.39969334 266.61253884 194.89348343 266.64116257 207.38939553 C266.65914516 214.39519125 266.70888977 221.39754481 266.84214211 228.40218163 C266.96766319 235.00322319 266.99466703 241.59970304 266.95777321 248.20217323 C266.95979122 250.6116801 266.99382884 253.02142953 267.06396103 255.42991638 C267.34728004 265.6994835 267.50517943 274.59105963 260.64139366 282.77758217 C256.7110673 286.91692084 252.48243637 290.61341842 248.08553731 294.24561083 C245.17133428 296.79250573 242.69330569 299.58201193 240.21439534 302.54657811 C238.16999651 304.98588244 235.93902037 307.2126838 233.68229675 309.45492554 C233.22434723 309.91141479 232.76639771 310.36790405 232.29457092 310.83822632 C231.31637153 311.81266932 230.337021 312.78595797 229.35658264 313.75814819 C227.79740324 315.30435293 226.24155429 316.8538445 224.68644714 318.40414429 C220.82648247 322.25086779 216.96104148 326.0920727 213.0957489 329.93344116 C209.81764608 333.1916825 206.54169058 336.45205544 203.26844788 339.71517944 C201.74904585 341.22818606 200.22662348 342.73810523 198.70402527 344.24789429 C194.05052592 348.87702069 189.50718687 353.54814354 185.25646973 358.55357361 C182.63636109 361.57883119 179.79816768 364.38627136 176.9596405 367.20492554 C176.38794128 367.78049194 175.81624207 368.35605835 175.22721863 368.94906616 C170.40160063 373.76334311 168.57388516 374.39242824 161.79666138 374.41459656 C161.07034675 374.41827325 160.34403212 374.42194993 159.59570795 374.42573804 C157.14922204 374.43679678 154.70277856 374.44062247 152.25627136 374.44442749 C150.50705327 374.45069067 148.75783651 374.45733734 147.00862122 374.46434021 C142.24589519 374.4817676 137.48317921 374.49230749 132.72042918 374.50054574 C129.74436884 374.50569401 126.76831163 374.51176994 123.79225349 374.51805687 C114.47986702 374.53711694 105.1674885 374.55134428 95.85508627 374.55966884 C85.10815691 374.5694342 74.3614339 374.59573201 63.61457723 374.63616973 C55.30788148 374.66635171 47.00124478 374.68113984 38.69449526 374.68444985 C33.73378737 374.68679867 28.77329971 374.69573672 23.81265068 374.72091103 C19.14145374 374.74423204 14.47062138 374.74840877 9.79938126 374.73814964 C8.08899916 374.73765509 6.37859888 374.74395166 4.66827202 374.75770569 C-7.56648305 374.85055218 -16.27337352 373.66820372 -25.50520325 365.06039429 C-31.98654631 358.31450661 -33.53237565 351.55307323 -33.48664856 342.55575562 C-33.4901532 341.70138412 -33.49365784 340.84701263 -33.49726868 339.9667511 C-33.50603608 337.15673583 -33.50025608 334.34697439 -33.4934845 331.53695679 C-33.49483221 329.57973686 -33.49677363 327.62251725 -33.49928284 325.66529846 C-33.50222701 321.57080893 -33.49795776 317.47640684 -33.48860168 313.38192749 C-33.47718494 308.12930534 -33.48378515 302.87688709 -33.49574661 297.62427235 C-33.50296497 293.58631344 -33.50067778 289.54840309 -33.49549103 285.51044273 C-33.49415564 283.57311669 -33.49579839 281.63578626 -33.50045013 279.69846535 C-33.50551741 276.99582812 -33.49780333 274.2935242 -33.48664856 271.59091187 C-33.49069702 270.78825897 -33.49474548 269.98560608 -33.49891663 269.15863037 C-33.46957331 265.32972101 -33.4032411 263.53049794 -31.2278595 260.26742554 C-30.2378595 259.93742554 -29.2478595 259.60742554 -28.2278595 259.26742554 C-28.2278595 252.33742554 -28.2278595 245.40742554 -28.2278595 238.26742554 C-29.5478595 237.60742554 -30.8678595 236.94742554 -32.2278595 236.26742554 C-34.51871409 231.68571635 -33.5030985 225.36016075 -33.5403595 220.32992554 C-33.5693634 219.02861694 -33.59836731 217.72730835 -33.62825012 216.38656616 C-33.64081848 214.5196814 -33.64081848 214.5196814 -33.65364075 212.61508179 C-33.66822327 211.47047485 -33.68280579 210.32586792 -33.6978302 209.14657593 C-33.2278595 206.26742554 -33.2278595 206.26742554 -31.32624817 204.37069702 C-29.2278595 203.26742554 -29.2278595 203.26742554 -27.2278595 203.26742554 C-27.2278595 196.00742554 -27.2278595 188.74742554 -27.2278595 181.26742554 C-28.5478595 180.93742554 -29.8678595 180.60742554 -31.2278595 180.26742554 C-33.96241612 177.53286891 -33.48391953 176.03315851 -33.49528503 172.20307922 C-33.503815 170.90914246 -33.51234497 169.61520569 -33.52113342 168.28205872 C-33.52043431 166.83959949 -33.5195112 165.39714036 -33.51838684 163.9546814 C-33.52436861 162.44191149 -33.53117334 160.92914464 -33.53874207 159.41638184 C-33.55645342 155.29824248 -33.56109983 151.18018619 -33.56237364 147.06201243 C-33.56427106 143.62305717 -33.57162749 140.18412132 -33.57871783 136.74517351 C-33.59502182 128.62603467 -33.59988527 120.50694019 -33.59846497 112.38778687 C-33.59726562 104.02176376 -33.61832131 95.65599952 -33.64995229 87.29004186 C-33.67614948 80.10434539 -33.68683069 72.91873321 -33.68555415 65.73298937 C-33.68504516 61.44297837 -33.69069185 57.15319689 -33.71191025 52.86323357 C-33.73134862 48.82235604 -33.73137919 44.78192541 -33.71687698 40.74103165 C-33.71479411 39.26286348 -33.71945859 37.78466696 -33.7315979 36.30654716 C-33.82205948 24.5220362 -32.12494389 16.68170261 -24.02082825 7.99008179 C-16.76583758 1.01960056 -9.60901379 -0.03110146 0 0 Z " fill="#E9D8EC" transform="translate(140.2278594970703,68.73257446289063)"/>
<path d="M0 0 C1.02783165 -0.00453111 2.0556633 -0.00906223 3.11464137 -0.01373065 C6.55756769 -0.02638744 10.00033608 -0.02475343 13.44328308 -0.02310181 C15.91229455 -0.02908624 18.38130415 -0.03589159 20.85031128 -0.04345703 C26.86037048 -0.05929675 32.87036764 -0.06556579 38.88044194 -0.06668179 C43.76724129 -0.06763309 48.65402772 -0.07174746 53.54082298 -0.07808304 C67.40484684 -0.0956907 81.26883977 -0.10492265 95.13287488 -0.10342209 C95.87984084 -0.10334218 96.62680679 -0.10326227 97.39640808 -0.10317993 C98.1442892 -0.10309817 98.89217032 -0.10301641 99.6627145 -0.10293217 C111.7810435 -0.1021194 123.89924817 -0.12125595 136.01754121 -0.14945666 C148.46939012 -0.17820427 160.92117843 -0.19199593 173.37306136 -0.19026911 C180.36029067 -0.18960586 187.34738964 -0.19506973 194.334589 -0.21662521 C200.90671458 -0.23677073 207.47861218 -0.23614414 214.0507679 -0.22159195 C216.46099499 -0.21950054 218.87123923 -0.22422443 221.28143692 -0.23631287 C224.57572444 -0.25176354 227.86906279 -0.24245735 231.16333008 -0.22705078 C232.11354076 -0.23733791 233.06375144 -0.24762503 234.04275638 -0.25822389 C243.4148399 -0.16159024 250.24757014 3.13231421 257.04948425 9.47445679 C264.00124574 16.70996365 265.06909994 23.91762458 265.14050293 33.50392151 C265.16317483 35.04733616 265.16317483 35.04733616 265.18630475 36.6219309 C265.23407768 40.06906056 265.26756438 43.51617123 265.30070496 46.96347046 C265.3312483 49.43596609 265.36238587 51.90845444 265.39407349 54.38093567 C265.66906823 76.96222057 265.8104691 99.54561767 265.92083454 122.12824535 C265.93586999 125.15112123 265.95116556 128.17399565 265.96672058 131.1968689 C265.97057348 131.94810814 265.97442637 132.69934739 265.97839602 133.47335146 C266.04275736 145.61818439 266.18007714 157.76108942 266.34631465 169.9049091 C266.51592663 182.39969334 266.61253884 194.89348343 266.64116257 207.38939553 C266.65914516 214.39519125 266.70888977 221.39754481 266.84214211 228.40218163 C266.96766319 235.00322319 266.99466703 241.59970304 266.95777321 248.20217323 C266.95979122 250.6116801 266.99382884 253.02142953 267.06396103 255.42991638 C267.34728004 265.6994835 267.50517943 274.59105963 260.64139366 282.77758217 C256.7110673 286.91692084 252.48243637 290.61341842 248.08553731 294.24561083 C245.17133428 296.79250573 242.69330569 299.58201193 240.21439534 302.54657811 C238.16999651 304.98588244 235.93902037 307.2126838 233.68229675 309.45492554 C233.22434723 309.91141479 232.76639771 310.36790405 232.29457092 310.83822632 C231.31637153 311.81266932 230.337021 312.78595797 229.35658264 313.75814819 C227.79740324 315.30435293 226.24155429 316.8538445 224.68644714 318.40414429 C220.82648247 322.25086779 216.96104148 326.0920727 213.0957489 329.93344116 C209.81764608 333.1916825 206.54169058 336.45205544 203.26844788 339.71517944 C201.74904585 341.22818606 200.22662348 342.73810523 198.70402527 344.24789429 C194.05052592 348.87702069 189.50718687 353.54814354 185.25646973 358.55357361 C182.63636109 361.57883119 179.79816768 364.38627136 176.9596405 367.20492554 C176.38794128 367.78049194 175.81624207 368.35605835 175.22721863 368.94906616 C170.40160063 373.76334311 168.57388516 374.39242824 161.79666138 374.41459656 C161.07034675 374.41827325 160.34403212 374.42194993 159.59570795 374.42573804 C157.14922204 374.43679678 154.70277856 374.44062247 152.25627136 374.44442749 C150.50705327 374.45069067 148.75783651 374.45733734 147.00862122 374.46434021 C142.24589519 374.4817676 137.48317921 374.49230749 132.72042918 374.50054574 C129.74436884 374.50569401 126.76831163 374.51176994 123.79225349 374.51805687 C114.47986702 374.53711694 105.1674885 374.55134428 95.85508627 374.55966884 C85.10815691 374.5694342 74.3614339 374.59573201 63.61457723 374.63616973 C55.30788148 374.66635171 47.00124478 374.68113984 38.69449526 374.68444985 C33.73378737 374.68679867 28.77329971 374.69573672 23.81265068 374.72091103 C19.14145374 374.74423204 14.47062138 374.74840877 9.79938126 374.73814964 C8.08899916 374.73765509 6.37859888 374.74395166 4.66827202 374.75770569 C-7.56648305 374.85055218 -16.27337352 373.66820372 -25.50520325 365.06039429 C-31.98654631 358.31450661 -33.53237565 351.55307323 -33.48664856 342.55575562 C-33.4901532 341.70138412 -33.49365784 340.84701263 -33.49726868 339.9667511 C-33.50603608 337.15673583 -33.50025608 334.34697439 -33.4934845 331.53695679 C-33.49483221 329.57973686 -33.49677363 327.62251725 -33.49928284 325.66529846 C-33.50222701 321.57080893 -33.49795776 317.47640684 -33.48860168 313.38192749 C-33.47718494 308.12930534 -33.48378515 302.87688709 -33.49574661 297.62427235 C-33.50296497 293.58631344 -33.50067778 289.54840309 -33.49549103 285.51044273 C-33.49415564 283.57311669 -33.49579839 281.63578626 -33.50045013 279.69846535 C-33.50551741 276.99582812 -33.49780333 274.2935242 -33.48664856 271.59091187 C-33.49069702 270.78825897 -33.49474548 269.98560608 -33.49891663 269.15863037 C-33.46957331 265.32972101 -33.4032411 263.53049794 -31.2278595 260.26742554 C-29.5403595 259.39242554 -29.5403595 259.39242554 -27.2278595 259.26742554 C-20.53713785 261.64886884 -20.53713785 261.64886884 -19.2278595 264.26742554 C-19.1210958 266.85944897 -19.07370282 269.42573536 -19.07014465 272.0184021 C-19.06252357 273.21870308 -19.06252357 273.21870308 -19.05474854 274.44325256 C-19.04403401 276.18440907 -19.03541809 277.92557944 -19.0286293 279.66675568 C-19.01685285 282.42424235 -18.99740212 285.18157152 -18.97550964 287.93899536 C-18.91385953 295.78035221 -18.85988524 303.62169427 -18.82649231 311.46322632 C-18.80552568 316.25727766 -18.77020299 321.05104415 -18.72573471 325.84493256 C-18.71158656 327.67089225 -18.70285495 329.49690237 -18.69968033 331.32291412 C-18.69476167 333.8818685 -18.67157841 336.44006993 -18.6443634 338.99887085 C-18.6488726 340.12596718 -18.6488726 340.12596718 -18.6534729 341.27583313 C-18.56803467 346.69598332 -17.44410469 350.89327993 -13.69270325 354.91195679 C-8.87442635 358.59652148 -6.7765012 359.39349497 -0.72331238 359.42564392 C0.28993011 359.43305089 0.28993011 359.43305089 1.32364213 359.44060749 C3.59765076 359.45602254 5.87163106 359.4643539 8.14567566 359.4727478 C9.77156831 359.48232318 11.39745845 359.49233306 13.02334595 359.50274658 C17.44662416 359.52983858 21.86991309 359.55082485 26.29322863 359.57074857 C30.91238908 359.59258168 35.53151633 359.61998343 40.15065002 359.64680481 C48.9018508 359.69676794 57.65306996 359.74169332 66.40430677 359.78482717 C76.36549144 359.83416864 86.32664282 359.88909821 96.28779531 359.94450676 C116.78254603 360.05838238 137.27732853 360.16520924 157.7721405 360.26742554 C157.76325806 359.43772247 157.75437561 358.60801941 157.745224 357.75317383 C157.66476206 349.89792546 157.60401651 342.04281738 157.56489182 334.18725014 C157.54410047 330.14950469 157.51593978 326.11210244 157.47038269 322.07455444 C157.42662004 318.17119392 157.40293998 314.26816154 157.39263153 310.36457443 C157.38529426 308.88234677 157.3709675 307.40013514 157.34922028 305.91804886 C157.18196432 294.03674179 158.68976574 283.64644427 167.264328 274.71273804 C176.42546712 266.22707461 185.74418066 265.70397956 197.74479675 265.87680054 C199.27892311 265.8842742 200.81305911 265.88996181 202.34719849 265.89395142 C206.35704065 265.90911947 210.36629002 265.94832288 214.37590027 265.99276733 C218.47860193 266.03391249 222.58140073 266.05200323 226.68424988 266.07211304 C234.71381677 266.11482761 242.7429046 266.18296925 250.7721405 266.26742554 C250.73584762 235.79490487 250.67922709 205.32249361 250.59421955 174.85007264 C250.58420207 171.2526998 250.57435794 167.6553265 250.56462097 164.05795288 C250.5626796 163.3417792 250.56073823 162.62560552 250.55873802 161.8877296 C250.5277151 150.29083916 250.51073657 138.69396851 250.49894628 127.09704439 C250.48653622 115.19792836 250.45903814 103.2989162 250.41752744 91.39986575 C250.3946439 84.71616381 250.37923263 78.03257331 250.38025665 71.34882736 C250.3810005 65.05988644 250.36316021 58.77127402 250.33097267 52.48241806 C250.3224432 50.17254636 250.32074429 47.86263794 250.32633781 45.55275726 C250.33295312 42.4015455 250.31511527 39.2513865 250.29112244 36.10028076 C250.29888285 35.18393022 250.30664327 34.26757968 250.31463885 33.32346094 C250.24016504 27.80693672 249.45121811 24.64205434 245.7721405 20.26742554 C241.8165071 16.69770759 238.91435014 15.14606731 233.59350109 15.13320446 C232.30994379 15.12651769 232.30994379 15.12651769 231.00045604 15.11969584 C230.06000495 15.1198802 229.11955386 15.12006457 228.15060425 15.12025452 C227.15180404 15.11657783 226.15300383 15.11290114 225.12393695 15.10911304 C221.76146776 15.09805878 218.39902946 15.09422942 215.0365448 15.09042358 C212.63207399 15.08416034 210.22760415 15.07751366 207.82313538 15.07051086 C200.5970087 15.05127267 193.37088458 15.04068181 186.14474007 15.03178307 C182.74200853 15.02739957 179.33927855 15.02203298 175.93654823 15.0167942 C164.62587526 14.99978373 153.31520326 14.98528893 142.00451946 14.97804546 C139.0697193 14.97613557 136.13491915 14.97421524 133.20011902 14.97225952 C132.10597364 14.97153391 132.10597364 14.97153391 130.98972432 14.97079364 C119.16987638 14.96249092 107.35012956 14.93714915 95.53032579 14.90467884 C83.39612665 14.87161645 71.26197891 14.85359751 59.12773448 14.85040122 C52.3143679 14.84823551 45.50114885 14.83947793 38.68782616 14.81394005 C32.27991908 14.78997717 25.87220561 14.78640221 19.4642601 14.79670143 C17.1108226 14.79719833 14.75737228 14.79083295 12.40397453 14.77714539 C9.193871 14.7595179 5.984731 14.76648814 2.77462769 14.77967834 C1.3739893 14.76322448 1.3739893 14.76322448 -0.05494481 14.74643821 C-5.61872976 14.80172563 -8.823981 15.53792254 -13.2278595 19.26742554 C-17.24442552 23.82677075 -18.35266041 26.13947748 -18.35243225 32.16886902 C-18.35499527 33.42651566 -18.35755829 34.68416229 -18.36019897 35.97991943 C-18.35812888 37.38150032 -18.35600613 38.78308113 -18.35383606 40.18466187 C-18.35523041 41.65465855 -18.35712945 43.12465483 -18.35949707 44.59465027 C-18.36399902 47.76491939 -18.36585026 50.93517554 -18.36595917 54.10544777 C-18.36709794 59.11835141 -18.37992482 64.13118114 -18.39552307 69.14405823 C-18.39809592 69.98953761 -18.40066878 70.835017 -18.4033196 71.70611697 C-18.40858633 73.43523476 -18.41387181 75.16435249 -18.41917562 76.89347017 C-18.45430604 88.56671729 -18.480837 100.23987314 -18.47834778 111.91317749 C-18.47675974 119.78335578 -18.49278243 127.65328275 -18.5290544 135.52338046 C-18.54752686 139.68922191 -18.55684644 143.85464372 -18.54457855 148.02051735 C-18.53314836 151.94004779 -18.54482921 155.85882692 -18.57421303 159.77825737 C-18.58085802 161.21615871 -18.57897908 162.65412874 -18.56791496 164.09200287 C-18.55405509 166.05631802 -18.5738771 168.02078447 -18.59535217 169.98503113 C-18.59681873 171.08397611 -18.59828529 172.18292109 -18.5997963 173.31516743 C-19.43790575 177.2547637 -21.13257118 178.77490632 -24.2278595 181.26742554 C-27.39314144 181.77387065 -29.20465489 181.97494902 -31.88331699 180.12271309 C-33.83328835 177.43201526 -33.60842731 175.38611358 -33.61553955 172.08282471 C-33.62544418 170.78751328 -33.63534882 169.49220184 -33.64555359 168.15763855 C-33.64131517 166.71881009 -33.63675727 165.27998255 -33.63191223 163.84115601 C-33.63761366 162.32823684 -33.64457704 160.81532199 -33.65270996 159.30241394 C-33.67068978 155.18842038 -33.66946302 151.07463958 -33.66376758 146.9606185 C-33.66068014 143.52409168 -33.66676379 140.08760599 -33.67280632 136.65108502 C-33.68686814 128.53813782 -33.68527885 120.42529586 -33.67390442 112.31234741 C-33.66244408 103.95367468 -33.67645984 95.59532357 -33.70330089 87.23669326 C-33.72549526 80.05521225 -33.73208621 72.8738319 -33.72622448 65.69231904 C-33.72285988 61.40569056 -33.72523574 57.11926784 -33.74247551 52.8326683 C-33.7580003 48.79586108 -33.75392827 44.75952716 -33.73517036 40.72273827 C-33.73149853 39.24618937 -33.73455175 37.76960501 -33.74505615 36.29308891 C-33.82238204 24.51880164 -32.11807628 16.67433714 -24.02082825 7.99008179 C-16.76583758 1.01960056 -9.60901379 -0.03110146 0 0 Z " fill="#080860" transform="translate(140.2278594970703,68.73257446289063)"/>
<path d="M0 0 C0.68169426 -0.00467997 1.36338851 -0.00935994 2.06574017 -0.01418173 C4.35514499 -0.02616934 6.64395536 -0.01666021 8.93336487 -0.00723267 C10.57262014 -0.01129675 12.21187267 -0.01663771 13.85112 -0.02316284 C18.30774842 -0.03686281 22.76416896 -0.0315265 27.22080112 -0.02202559 C31.8807779 -0.01444156 36.54073664 -0.02147121 41.20071411 -0.02618408 C49.02813418 -0.03164585 56.8554694 -0.02443956 64.68287659 -0.01016235 C73.73573818 0.00615928 82.78839703 0.0008809 91.8412537 -0.01564157 C99.60863368 -0.02925125 107.37595259 -0.03117846 115.14334065 -0.02332556 C119.78467543 -0.01864546 124.4259149 -0.01803333 129.06724358 -0.02793503 C133.43145749 -0.03659468 137.79540986 -0.03060117 142.15959549 -0.01325226 C143.76240797 -0.00928181 145.36524242 -0.01043101 146.96804619 -0.01704025 C149.15412588 -0.02522421 151.33936468 -0.01497326 153.52539062 0 C154.74932242 0.00113108 155.97325422 0.00226215 157.23427486 0.00342751 C160.57144823 0.41089738 161.96319807 1.0339326 164.32618713 3.38095093 C164.85743713 5.31845093 164.85743713 5.31845093 164.82618713 7.38095093 C164.84165588 8.40188843 164.84165588 8.40188843 164.85743713 9.44345093 C164.08116649 12.27455562 162.8394643 12.90587824 160.32618713 14.38095093 C157.23706818 14.76406097 157.23706818 14.76406097 153.53211975 14.77536011 C152.84957107 14.78145121 152.16702239 14.78754231 151.46379042 14.793818 C149.17751898 14.81046238 146.8918036 14.80567039 144.60548401 14.8008728 C142.96607891 14.80821224 141.32667898 14.8167981 139.68728638 14.82653809 C135.23487164 14.84877384 130.78264185 14.85168382 126.33017921 14.84979057 C122.61477304 14.84967099 118.89940622 14.85822997 115.18401098 14.86656809 C106.42066675 14.88580882 97.65741779 14.88868322 88.89405823 14.88192749 C79.84846614 14.87528269 70.80328142 14.89816706 61.75777197 14.93524122 C53.99461178 14.96590693 46.23158286 14.97730176 38.46836329 14.97340441 C33.83030588 14.97133401 29.19256557 14.97686098 24.55456543 15.001297 C20.19431827 15.02351069 15.83473521 15.02173166 11.4744854 15.00136948 C9.87327499 14.99795006 8.27202034 15.00308855 6.67086983 15.01735306 C4.4865511 15.03547213 2.30450323 15.02285599 0.12025452 15.00241089 C-1.71369495 15.00347965 -1.71369495 15.00347965 -3.58469391 15.00457001 C-6.67381287 14.38095093 -6.67381287 14.38095093 -9.10234833 12.03742218 C-10.67381287 9.38095093 -10.67381287 9.38095093 -10.61131287 6.25595093 C-8.6713317 0.30667535 -6.01818254 0.00556332 0 0 Z " fill="#0B0960" transform="translate(178.67381286621094,242.61904907226563)"/>
<path d="M0 0 C0.68169426 -0.00467997 1.36338851 -0.00935994 2.06574017 -0.01418173 C4.35514499 -0.02616934 6.64395536 -0.01666021 8.93336487 -0.00723267 C10.57262014 -0.01129675 12.21187267 -0.01663771 13.85112 -0.02316284 C18.30774842 -0.03686281 22.76416896 -0.0315265 27.22080112 -0.02202559 C31.8807779 -0.01444156 36.54073664 -0.02147121 41.20071411 -0.02618408 C49.02813418 -0.03164585 56.8554694 -0.02443956 64.68287659 -0.01016235 C73.73573818 0.00615928 82.78839703 0.0008809 91.8412537 -0.01564157 C99.60863368 -0.02925125 107.37595259 -0.03117846 115.14334065 -0.02332556 C119.78467543 -0.01864546 124.4259149 -0.01803333 129.06724358 -0.02793503 C133.43145749 -0.03659468 137.79540986 -0.03060117 142.15959549 -0.01325226 C143.76240797 -0.00928181 145.36524242 -0.01043101 146.96804619 -0.01704025 C149.15412588 -0.02522421 151.33936468 -0.01497326 153.52539062 0 C154.74932242 0.00113108 155.97325422 0.00226215 157.23427486 0.00342751 C160.57144823 0.41089738 161.96319807 1.0339326 164.32618713 3.38095093 C164.85743713 5.31845093 164.85743713 5.31845093 164.82618713 7.38095093 C164.84165588 8.40188843 164.84165588 8.40188843 164.85743713 9.44345093 C164.08155404 12.27314221 162.83705422 12.90556941 160.32618713 14.38095093 C157.25547886 14.76406097 157.25547886 14.76406097 153.57681274 14.77536011 C152.5601734 14.78449676 152.5601734 14.78449676 151.52299589 14.793818 C149.25287674 14.81046162 146.98331766 14.80567048 144.71315002 14.8008728 C143.08521949 14.80821235 141.45729416 14.81679825 139.82937622 14.82653809 C135.40788477 14.84877439 130.98657956 14.85168374 126.56503987 14.84979057 C122.87458113 14.84967097 119.18416201 14.8582307 115.49371427 14.86656809 C106.78786135 14.88580959 98.08210432 14.88868318 89.37623596 14.88192749 C80.39314664 14.87528501 71.41046775 14.89815757 62.42746168 14.93524122 C54.71608995 14.96592096 47.00485038 14.97730016 39.29341882 14.97340441 C34.68718669 14.9713352 30.08127395 14.9768425 25.47509956 15.001297 C21.14357515 15.02353338 16.81271889 15.02171263 12.48119164 15.00136948 C10.89168913 14.99795393 9.30214191 15.00307204 7.71269989 15.01735306 C5.54186694 15.03551173 3.37330899 15.02282635 1.20254517 15.00241089 C-0.01179168 15.0031234 -1.22612852 15.00383591 -2.47726345 15.00457001 C-6.60174076 14.19992024 -8.12134381 12.65622394 -10.67381287 9.38095093 C-10.67381287 6.20877059 -10.33779159 4.34086063 -8.52842617 1.72507286 C-5.73143032 -0.30203622 -3.42530796 0.00316642 0 0 Z " fill="#080860" transform="translate(178.67381286621094,288.6190490722656)"/>
<path d="M0 0 C1.7115477 0.0001133 1.7115477 0.0001133 3.45767212 0.00022888 C4.69415497 0.00539017 5.93063782 0.01055145 7.20458984 0.01586914 C8.46693451 0.01728409 9.72927917 0.01869904 11.02987671 0.02015686 C14.38691033 0.02481461 17.74387635 0.03380131 21.10089111 0.04486084 C24.52607641 0.05508769 27.95126868 0.05965721 31.37646484 0.06469727 C38.09783777 0.07574301 44.81917865 0.09249346 51.54052734 0.11352539 C46.74005286 5.89881201 41.57174301 11.19731792 36.23193359 16.48461914 C34.90451393 17.80635887 34.90451393 17.80635887 33.55027771 19.15480042 C30.26246824 22.42840823 26.97016657 25.6974764 23.67749023 28.96618652 C20.4427995 32.17781995 17.21201155 35.39334752 13.98193359 38.60961914 C12.71912315 39.85998207 12.71912315 39.85998207 11.43080139 41.13560486 C7.11502998 45.43357759 2.96963552 49.80618411 -1.00068665 54.4254303 C-2.65624036 56.34122335 -4.38201513 58.1651689 -6.17041016 59.95727539 C-6.77498047 60.56313477 -7.37955078 61.16899414 -8.00244141 61.79321289 C-8.60701172 62.39391602 -9.21158203 62.99461914 -9.83447266 63.61352539 C-10.46224609 64.24516602 -11.09001953 64.87680664 -11.73681641 65.52758789 C-12.63207031 66.4209082 -12.63207031 66.4209082 -13.54541016 67.33227539 C-14.08214355 67.86788086 -14.61887695 68.40348633 -15.171875 68.95532227 C-16.45947266 70.11352539 -16.45947266 70.11352539 -17.45947266 70.11352539 C-17.5757679 62.81999394 -17.66438919 55.5266652 -17.71853352 48.23239136 C-17.74453197 44.84461515 -17.77974644 41.45747727 -17.83666992 38.07006836 C-17.89753227 34.16771797 -17.92573313 30.26626492 -17.94775391 26.36352539 C-17.97356033 25.15801025 -17.99936676 23.95249512 -18.0259552 22.71044922 C-18.02832864 15.54228767 -17.28330445 10.59726374 -12.45947266 5.11352539 C-8.13824329 1.19427085 -5.76921258 -0.01270752 0 0 Z " fill="#D5B7E7" transform="translate(329.45947265625,348.886474609375)"/>
<path d="M0 0 C3.51066017 2.48421521 6.56724994 4.87080913 8.51171875 8.77734375 C8.65228874 12.43216338 8.22334055 13.92887161 5.88671875 16.71484375 C2.38198803 18.2827496 0.18279966 17.74341767 -3.48828125 16.77734375 C-6.11328125 14.83984375 -6.11328125 14.83984375 -8.48828125 12.77734375 C-13.16760655 10.10344358 -18.24995812 10.1465091 -23.48828125 10.77734375 C-29.10161535 12.40482082 -32.40282308 15.26083284 -35.578125 20.09375 C-38.24251242 25.02229496 -38.14987307 30.33593686 -37.48828125 35.77734375 C-35.15952619 41.61372574 -31.12873908 45.95711483 -25.48828125 48.77734375 C-17.40380428 49.47586088 -11.37449529 49.19491502 -4.48828125 44.77734375 C-3.82828125 44.11734375 -3.16828125 43.45734375 -2.48828125 42.77734375 C1.39173929 42.34623036 3.66093839 42.24560603 7.01171875 44.33984375 C8.51171875 46.77734375 8.51171875 46.77734375 8.69921875 50.15234375 C7.10345098 55.02363484 4.8081435 57.10366936 0.51171875 59.77734375 C-8.30745449 64.0246143 -17.48491744 66.71103361 -27.21875 64.0234375 C-37.58731898 60.02346006 -46.12677089 53.43780701 -50.98828125 43.21484375 C-54.13620146 34.20673281 -54.01156214 22.66318476 -49.87890625 14.01953125 C-39.1716835 -3.24436161 -18.18146858 -10.54177919 0 0 Z " fill="#0F0B62" transform="translate(239.48828125,132.22265625)"/>
<path d="M0 0 C4.26062565 3.23172764 5.87647186 7.628986 7.890625 12.4140625 C8.24010193 13.22491302 8.58957886 14.03576355 8.949646 14.8711853 C9.68350112 16.57886111 10.41276369 18.28851698 11.13769531 20 C12.25080988 22.6269113 13.37803717 25.24740439 14.5078125 27.8671875 C15.21957948 29.52829065 15.93054519 31.18973742 16.640625 32.8515625 C16.97805725 33.63802155 17.3154895 34.42448059 17.66314697 35.23477173 C20 40.76640584 20 40.76640584 20 43 C20.66 43 21.32 43 22 43 C22.09224854 42.34604248 22.18449707 41.69208496 22.27954102 41.01831055 C23.2346265 37.01704934 24.84858948 33.45273595 26.52734375 29.70703125 C26.87632217 28.91979172 27.2253006 28.13255219 27.58485413 27.32145691 C28.32124791 25.66379721 29.06018835 24.00726677 29.80151367 22.35180664 C30.93687007 19.81390809 32.06172525 17.27153957 33.18554688 14.72851562 C33.90302262 13.11690991 34.62110088 11.50557226 35.33984375 9.89453125 C35.67636459 9.13308304 36.01288544 8.37163483 36.35960388 7.58711243 C38.76982606 2.23017394 38.76982606 2.23017394 41 0 C44.89201406 -0.43244601 47.13230302 -0.57846465 50.4375 1.625 C52.46304398 4.70382685 52.28401526 6.3486512 52 10 C50.98120117 12.9465332 50.98120117 12.9465332 49.54296875 16.05078125 C48.74729492 17.79391602 48.74729492 17.79391602 47.93554688 19.57226562 C47.35318074 20.81915813 46.77049123 22.06589964 46.1875 23.3125 C45.29332791 25.25271268 44.40263311 27.19449581 43.51223755 29.13644409 C42.90554359 30.45909124 42.29752166 31.78113003 41.6882019 33.10256958 C39.67848348 37.47234897 37.74833206 41.86790722 35.86328125 46.29296875 C35.37899658 47.42500732 34.89471191 48.5570459 34.39575195 49.72338867 C33.48593946 51.859228 32.58431895 53.9985812 31.69213867 56.1418457 C29.44900212 61.36360918 27.58147387 65.51507561 23 69 C19.77634254 69 17.9152268 68.7783454 15.43218994 66.66667175 C13.94169749 64.93215206 13.11076667 63.4287087 12.20996094 61.33325195 C11.89242859 60.60431229 11.57489624 59.87537262 11.2477417 59.12434387 C10.91333069 58.33694321 10.57891968 57.54954254 10.234375 56.73828125 C9.87788879 55.91482712 9.52140259 55.09137299 9.15411377 54.2429657 C8.01268786 51.60231703 6.88115233 48.95756346 5.75 46.3125 C4.63479496 43.72416774 3.51761268 41.13669533 2.40026855 38.54928589 C1.66555785 36.84400356 0.93353454 35.13756083 0.20422363 33.42996216 C-1.51894237 29.39914088 -3.26808033 25.38703052 -5.10742188 21.40771484 C-5.43522644 20.68972214 -5.76303101 19.97172943 -6.10076904 19.23197937 C-6.70836866 17.90644912 -7.32608176 16.5854823 -7.95635986 15.27058411 C-9.88643553 11.03127742 -10.36647207 7.63330493 -10 3 C-7.7773391 -1.05308751 -4.20075589 -0.5158823 0 0 Z " fill="#0E0B62" transform="translate(270,128)"/>
<path d="M0 0 C0.84271957 -0.00700928 1.68543915 -0.01401855 2.55369568 -0.02124023 C5.33756523 -0.03883633 8.1204171 -0.02719196 10.90429688 -0.01367188 C12.8395609 -0.01636633 14.77482361 -0.02024836 16.71008301 -0.02526855 C20.76534926 -0.03116578 24.82026301 -0.02259337 28.87548828 -0.00390625 C34.07447619 0.01888339 39.27263816 0.00576152 44.47159576 -0.01819611 C48.46761299 -0.03264798 52.46343428 -0.02805089 56.4594574 -0.01768494 C58.37642006 -0.01501596 60.29340049 -0.0182934 62.21034241 -0.02760315 C64.8894057 -0.0377587 67.56713022 -0.02228214 70.24609375 0 C71.4353672 -0.01214539 71.4353672 -0.01214539 72.64866638 -0.02453613 C76.17210039 0.02977461 78.24778161 0.24846829 81.14660645 2.32727051 C82.62304688 4.51757812 82.62304688 4.51757812 82.62304688 8.08007812 C81.62304688 11.51757812 81.62304688 11.51757812 80.07164001 13.20617676 C76.5948543 15.06825072 73.29446973 14.95210003 69.44555664 14.9375 C68.6239505 14.94596954 67.80234436 14.95443909 66.95584106 14.96316528 C64.24188731 14.98655039 61.52849998 14.98755711 58.81445312 14.98632812 C56.92642489 14.99342871 55.03839883 15.00112755 53.15037537 15.00939941 C49.19353232 15.02284762 45.23688881 15.02441142 41.2800293 15.01855469 C36.21108079 15.01265772 31.14308979 15.04324829 26.07432652 15.08367157 C22.17521513 15.10952937 18.27633489 15.11242774 14.37714958 15.10877991 C12.50843842 15.1104729 10.63971679 15.12013269 8.77108955 15.13792419 C6.15671956 15.160077 3.54429535 15.15043196 0.92993164 15.1328125 C-0.22589668 15.15270737 -0.22589668 15.15270737 -1.40507507 15.17300415 C-5.41087807 15.1103202 -7.18833789 14.66790628 -10.36097717 12.13928223 C-12.37695312 9.51757812 -12.37695312 9.51757812 -12.93945312 6.95507812 C-11.35168604 0.07475408 -6.09231575 -0.06221742 0 0 Z " fill="#0C0A61" transform="translate(180.376953125,334.482421875)"/>
<path d="M0 0 C1.69213867 1.20336914 1.69213867 1.20336914 3 3 C3.37231445 5.57202148 3.37231445 5.57202148 3.36328125 8.62109375 C3.36263672 9.72130859 3.36199219 10.82152344 3.36132812 11.95507812 C3.34521484 13.10427734 3.32910156 14.25347656 3.3125 15.4375 C3.31572266 16.58283203 3.31894531 17.72816406 3.32226562 18.90820312 C3.25905591 28.72869459 3.25905591 28.72869459 1 32 C-4.82210243 34.37196765 -4.82210243 34.37196765 -8.375 33.25 C-10 32 -10 32 -11 30 C-11.29869012 25.35979756 -11.27806534 20.71117924 -11.3125 16.0625 C-11.34150391 14.76119141 -11.37050781 13.45988281 -11.40039062 12.11914062 C-11.41295898 10.25225586 -11.41295898 10.25225586 -11.42578125 8.34765625 C-11.44036377 7.20304932 -11.45494629 6.05844238 -11.4699707 4.87915039 C-11 2 -11 2 -9.19604492 0.09545898 C-5.859087 -1.56912469 -3.53670536 -0.90025227 0 0 Z " fill="#090960" transform="translate(118,273)"/>
</svg>
